<svg version="1.2" xmlns="http://www.w3.org/2000/svg" viewBox="0 0 700 700" width="700" height="700">
	<title>noun-play-4495994-svg</title>
	<style>
		.s0 { fill: #136115 } 
	</style>
	<g id="Layer">
		<path id="Layer" fill-rule="evenodd" class="s0" d="m245.7 15.8c49.6-15.4 101.4-19.6 153.1-12.4l-6.7 48.8c-43.9-6.1-89.5-2.5-131.8 10.7l-14.6-47zm454.3 334.1c0 193.3-156.7 350-350 350-193.3 0-350-156.7-350-350 0-30.2 4.2-62 12-91l47.6 12.8c-7 26-10.2 50.9-10.2 78.2 0 166 134.6 300.6 300.6 300.6 166.1 0 300.6-134.6 300.6-300.6 0-114.2-64-216.8-164.1-268l22.4-43.9c116.2 59.3 191.1 179.2 191.1 311.9zm-517.9-249.4c-38.2 25.7-70.2 60-93.1 99.8l-42.6-24.4c26.8-46.6 63.7-86.4 108.1-116.3 0 0 27.6 40.9 27.6 40.9zm126.4 109.1l155.7 92.9c35.9 21.5 35.9 73.3 0 94.8l-155.7 92.9c-37.4 22.3-83.4-5.1-83.4-47.4v-185.8c0-42.3 46-69.7 83.4-47.4z"/>
	</g>
</svg>